<svg width="295" height="40" viewBox="0 0 295 40" fill="none" xmlns="http://www.w3.org/2000/svg">
<path d="M130 39.9999H5C2.25 39.9999 0 37.75 0 35V4.99999C0 2.25 2.25 0 5 0H130C132.75 0 135 2.25 135 4.99999V35C135 37.75 132.75 39.9999 130 39.9999Z" fill="black"/>
<path d="M130 0.799999C132.32 0.799999 134.2 2.68 134.2 4.99999V35C134.2 37.32 132.32 39.1999 130 39.1999H5C2.68 39.1999 0.8 37.32 0.8 35V4.99999C0.8 2.68 2.68 0.799999 5 0.799999H130ZM130 0H5C2.25 0 0 2.25 0 4.99999V35C0 37.75 2.25 39.9999 5 39.9999H130C132.75 39.9999 135 37.75 135 35V4.99999C135 2.25 132.75 0 130 0Z" fill="#A6A6A6"/>
<path d="M47.42 10.24C47.42 11.08 47.17 11.75 46.67 12.24C46.11 12.83 45.37 13.13 44.47 13.13C43.6 13.13 42.87 12.83 42.26 12.23C41.65 11.63 41.35 10.88 41.35 9.99996C41.35 9.10995 41.65 8.36994 42.26 7.76994C42.87 7.16993 43.6 6.86993 44.47 6.86993C44.9 6.86993 45.31 6.94993 45.7 7.11993C46.09 7.28993 46.4 7.50993 46.64 7.78994L46.11 8.31994C45.71 7.84994 45.17 7.60994 44.47 7.60994C43.84 7.60994 43.29 7.82994 42.83 8.27994C42.37 8.71995 42.14 9.29996 42.14 10.01C42.14 10.72 42.37 11.3 42.83 11.74C43.29 12.18 43.84 12.41 44.47 12.41C45.14 12.41 45.7 12.19 46.15 11.74C46.44 11.45 46.61 11.04 46.65 10.52H44.47V9.79996H47.38C47.4 9.94996 47.42 10.1 47.42 10.24Z" fill="white" stroke="white" stroke-width="0.2" stroke-miterlimit="10"/>
<path d="M52.03 7.73993H49.3V9.63994H51.76V10.3599H49.3V12.2599H52.03V12.9999H48.53V6.99993H52.03V7.73993V7.73993Z" fill="white" stroke="white" stroke-width="0.2" stroke-miterlimit="10"/>
<path d="M55.28 12.9999H54.51V7.73993H52.83V6.99993H56.95V7.73993H55.27V12.9999H55.28Z" fill="white" stroke="white" stroke-width="0.2" stroke-miterlimit="10"/>
<path d="M59.94 12.9999V6.99993H60.71V12.9999H59.94Z" fill="white" stroke="white" stroke-width="0.2" stroke-miterlimit="10"/>
<path d="M64.13 12.9999H63.36V7.73993H61.68V6.99993H65.8V7.73993H64.12V12.9999H64.13Z" fill="white" stroke="white" stroke-width="0.2" stroke-miterlimit="10"/>
<path d="M73.61 12.22C73.02 12.83 72.29 13.13 71.41 13.13C70.53 13.13 69.8 12.83 69.21 12.22C68.62 11.61 68.33 10.87 68.33 9.99996C68.33 9.12995 68.62 8.37995 69.21 7.77994C69.8 7.16993 70.53 6.86993 71.41 6.86993C72.28 6.86993 73.01 7.16993 73.61 7.77994C74.2 8.38995 74.5 9.12995 74.5 9.99996C74.49 10.88 74.2 11.62 73.61 12.22ZM69.78 11.72C70.22 12.17 70.77 12.39 71.41 12.39C72.05 12.39 72.6 12.17 73.04 11.72C73.48 11.27 73.71 10.7 73.71 9.99996C73.71 9.29996 73.49 8.72995 73.04 8.27994C72.6 7.82994 72.05 7.60994 71.41 7.60994C70.77 7.60994 70.22 7.82994 69.78 8.27994C69.34 8.72995 69.11 9.29996 69.11 9.99996C69.11 10.7 69.34 11.27 69.78 11.72Z" fill="white" stroke="white" stroke-width="0.2" stroke-miterlimit="10"/>
<path d="M75.58 12.9999V6.99993H76.52L79.44 11.6699H79.47L79.44 10.5099V6.99993H80.21V12.9999H79.41L76.36 8.10993H76.33L76.36 9.26994V12.9999H75.58Z" fill="white" stroke="white" stroke-width="0.2" stroke-miterlimit="10"/>
<path d="M68.14 21.75C65.79 21.75 63.87 23.54 63.87 26C63.87 28.45 65.79 30.2501 68.14 30.2501C70.49 30.2501 72.41 28.45 72.41 26C72.41 23.54 70.49 21.75 68.14 21.75ZM68.14 28.5801C66.85 28.5801 65.74 27.52 65.74 26C65.74 24.47 66.85 23.42 68.14 23.42C69.43 23.42 70.54 24.47 70.54 26C70.54 27.52 69.42 28.5801 68.14 28.5801ZM58.82 21.75C56.47 21.75 54.55 23.54 54.55 26C54.55 28.45 56.47 30.2501 58.82 30.2501C61.17 30.2501 63.09 28.45 63.09 26C63.09 23.54 61.17 21.75 58.82 21.75ZM58.82 28.5801C57.53 28.5801 56.42 27.52 56.42 26C56.42 24.47 57.53 23.42 58.82 23.42C60.11 23.42 61.22 24.47 61.22 26C61.22 27.52 60.11 28.5801 58.82 28.5801ZM47.74 23.06V24.86H52.06C51.93 25.87 51.59 26.62 51.08 27.13C50.45 27.76 49.47 28.45 47.75 28.45C45.09 28.45 43.01 26.31 43.01 23.65C43.01 20.99 45.09 18.85 47.75 18.85C49.18 18.85 50.23 19.41 51 20.14L52.27 18.87C51.19 17.84 49.76 17.05 47.74 17.05C44.1 17.05 41.04 20.01 41.04 23.66C41.04 27.3 44.1 30.2701 47.74 30.2701C49.71 30.2701 51.19 29.6301 52.35 28.42C53.54 27.23 53.91 25.55 53.91 24.2C53.91 23.78 53.88 23.39 53.81 23.07H47.74V23.06ZM93.05 24.46C92.7 23.51 91.62 21.75 89.41 21.75C87.22 21.75 85.4 23.47 85.4 26C85.4 28.38 87.2 30.2501 89.62 30.2501C91.57 30.2501 92.7 29.0601 93.16 28.37L91.71 27.4C91.23 28.11 90.57 28.5801 89.62 28.5801C88.67 28.5801 87.99 28.14 87.56 27.29L93.25 24.94L93.05 24.46ZM87.25 25.88C87.2 24.24 88.52 23.4 89.47 23.4C90.21 23.4 90.84 23.77 91.05 24.3L87.25 25.88ZM82.63 30.0001H84.5V17.5H82.63V30.0001ZM79.57 22.7H79.5C79.08 22.2 78.28 21.75 77.26 21.75C75.13 21.75 73.18 23.62 73.18 26.02C73.18 28.4 75.13 30.2601 77.26 30.2601C78.27 30.2601 79.08 29.8101 79.5 29.2901H79.56V29.9001C79.56 31.5301 78.69 32.4001 77.29 32.4001C76.15 32.4001 75.44 31.5801 75.15 30.8901L73.52 31.5701C73.99 32.7001 75.23 34.0801 77.29 34.0801C79.48 34.0801 81.33 32.7901 81.33 29.6501V22.01H79.56V22.7H79.57ZM77.42 28.5801C76.13 28.5801 75.05 27.5 75.05 26.02C75.05 24.52 76.13 23.43 77.42 23.43C78.69 23.43 79.69 24.53 79.69 26.02C79.7 27.5 78.7 28.5801 77.42 28.5801ZM101.81 17.5H97.34V30.0001H99.21V25.26H101.82C103.89 25.26 105.92 23.76 105.92 21.38C105.92 19 103.87 17.5 101.81 17.5ZM101.85 23.52H99.2V19.23H101.85C103.25 19.23 104.04 20.39 104.04 21.37C104.04 22.35 103.25 23.52 101.85 23.52ZM113.39 21.73C112.04 21.73 110.64 22.33 110.06 23.64L111.72 24.33C112.07 23.64 112.73 23.41 113.42 23.41C114.38 23.41 115.37 23.99 115.38 25.02V25.15C115.04 24.96 114.32 24.67 113.43 24.67C111.64 24.67 109.83 25.65 109.83 27.48C109.83 29.1501 111.29 30.2301 112.93 30.2301C114.18 30.2301 114.88 29.6701 115.31 29.01H115.37V29.9801H117.17V25.19C117.18 22.97 115.52 21.73 113.39 21.73ZM113.16 28.5801C112.55 28.5801 111.7 28.27 111.7 27.52C111.7 26.56 112.76 26.19 113.68 26.19C114.5 26.19 114.89 26.37 115.38 26.61C115.24 27.76 114.24 28.5801 113.16 28.5801ZM123.74 22L121.6 27.42H121.54L119.32 22H117.31L120.64 29.5801L118.74 33.7901H120.69L125.82 22H123.74ZM106.94 30.0001H108.81V17.5H106.94V30.0001Z" fill="white"/>
<path d="M10.44 7.54C10.15 7.85 9.97998 8.33 9.97998 8.94V31.0599C9.97998 31.6799 10.15 32.1599 10.44 32.4599L10.51 32.5299L22.9 20.15V20V19.85L10.51 7.47L10.44 7.54Z" fill="url(#paint0_linear_31_62)"/>
<path d="M27.03 24.28L22.9 20.15V20V19.85L27.03 15.72L27.12 15.77L32.01 18.55C33.41 19.34 33.41 20.64 32.01 21.44L27.12 24.22L27.03 24.28Z" fill="url(#paint1_linear_31_62)"/>
<path d="M27.12 24.22L22.9 20L10.44 32.46C10.9 32.95 11.66 33.01 12.52 32.52L27.12 24.22Z" fill="url(#paint2_linear_31_62)"/>
<path d="M27.12 15.78L12.51 7.48C11.65 6.99 10.89 7.05 10.43 7.54L22.9 20L27.12 15.78Z" fill="url(#paint3_linear_31_62)"/>
<path opacity="0.2" d="M27.03 24.13L12.51 32.38C11.7 32.84 10.97 32.81 10.51 32.39L10.44 32.46L10.51 32.53C10.98 32.95 11.7 32.98 12.51 32.52L27.12 24.22L27.03 24.13Z" fill="black"/>
<path opacity="0.12" d="M10.44 32.3202C10.15 32.0102 9.97998 31.5302 9.97998 30.9202V31.0702C9.97998 31.6902 10.15 32.1702 10.44 32.4702L10.51 32.4002L10.44 32.3202Z" fill="black"/>
<path opacity="0.12" d="M32.01 21.3L27.02 24.1301L27.11 24.2201L32 21.44C32.7 21.04 33.05 20.52 33.05 20C33 20.47 32.65 20.94 32.01 21.3Z" fill="black"/>
<path opacity="0.25" d="M12.51 7.61992L32.01 18.7C32.64 19.06 33 19.52 33.06 20C33.06 19.48 32.71 18.9499 32.01 18.5599L12.51 7.47992C11.11 6.68991 9.96997 7.34992 9.96997 8.94992V9.09992C9.96997 7.48992 11.12 6.82991 12.51 7.61992Z" fill="white"/>
<path d="M285.135 0.00013H184.535C184.168 0.00013 183.806 0.00013 183.44 0.00212999C183.134 0.00412999 182.83 0.00993997 182.521 0.01483C181.85 0.0227317 181.18 0.081806 180.517 0.191539C179.856 0.303662 179.215 0.515044 178.616 0.818537C178.018 1.1246 177.472 1.52229 176.998 1.99719C176.52 2.47076 176.122 3.01814 175.819 3.61828C175.515 4.21723 175.305 4.85905 175.194 5.52159C175.083 6.1833 175.023 6.85263 175.015 7.52359C175.006 7.83018 175.005 8.1378 175 8.44444V31.5586C175.005 31.8691 175.006 32.1699 175.015 32.4805C175.023 33.1514 175.083 33.8207 175.194 34.4824C175.304 35.1453 175.515 35.7875 175.819 36.3867C176.122 36.9849 176.52 37.5301 176.998 38.001C177.471 38.478 178.017 38.876 178.616 39.1797C179.215 39.484 179.855 39.6967 180.517 39.8105C181.18 39.9194 181.85 39.9785 182.521 39.9873C182.83 39.9941 183.134 39.998 183.44 39.998C183.806 40 184.168 40 184.535 40H285.135C285.494 40 285.859 40 286.219 39.998C286.523 39.998 286.836 39.9941 287.141 39.9873C287.811 39.9789 288.479 39.9198 289.141 39.8105C289.804 39.6958 290.448 39.4833 291.049 39.1797C291.647 38.8758 292.193 38.4779 292.666 38.001C293.142 37.5282 293.541 36.9835 293.848 36.3867C294.15 35.7871 294.358 35.145 294.467 34.4824C294.578 33.8207 294.64 33.1515 294.652 32.4805C294.656 32.1699 294.656 31.8691 294.656 31.5586C294.664 31.1953 294.664 30.834 294.664 30.4648V9.53623C294.664 9.17002 294.664 8.80674 294.656 8.44444C294.656 8.1378 294.656 7.83018 294.652 7.52355C294.64 6.85253 294.578 6.18335 294.467 5.52155C294.358 4.8594 294.149 4.21762 293.848 3.61824C293.23 2.41532 292.252 1.43615 291.049 0.818447C290.448 0.515696 289.804 0.304369 289.141 0.191449C288.48 0.0812325 287.811 0.0221377 287.141 0.01469C286.836 0.00980997 286.523 0.00394999 286.219 0.00199999C285.859 0 285.494 0 285.135 0V0.00013Z" fill="#A6A6A6"/>
<path d="M183.445 39.1251C183.14 39.1251 182.843 39.1212 182.541 39.1144C181.914 39.1062 181.29 39.0517 180.671 38.9513C180.095 38.852 179.537 38.6673 179.015 38.4034C178.497 38.1416 178.026 37.7983 177.618 37.3868C177.204 36.98 176.859 36.5083 176.597 35.9903C176.333 35.4689 176.149 34.91 176.054 34.3331C175.951 33.7132 175.896 33.0864 175.888 32.4581C175.881 32.2472 175.873 31.545 175.873 31.545V8.44447C175.873 8.44447 175.882 7.75306 175.888 7.54993C175.895 6.92261 175.951 6.29679 176.053 5.67786C176.149 5.09939 176.332 4.53889 176.597 4.01577C176.857 3.49808 177.2 3.026 177.612 2.61782C178.023 2.20576 178.496 1.86075 179.014 1.59535C179.535 1.33224 180.092 1.14888 180.667 1.05141C181.288 0.949981 181.915 0.895141 182.543 0.887355L183.445 0.875145H286.214L287.127 0.887845C287.75 0.895244 288.371 0.949595 288.985 1.05043C289.566 1.14912 290.13 1.33376 290.656 1.59828C291.694 2.13313 292.539 2.9793 293.071 4.01821C293.332 4.53771 293.512 5.09364 293.606 5.66712C293.71 6.29112 293.768 6.92187 293.78 7.55433C293.783 7.83753 293.783 8.14173 293.783 8.44447C293.791 8.81947 293.791 9.1764 293.791 9.53626V30.4649C293.791 30.8282 293.791 31.1827 293.783 31.5401C293.783 31.8653 293.783 32.1632 293.779 32.4698C293.768 33.0909 293.71 33.7104 293.608 34.3233C293.515 34.9043 293.333 35.4676 293.068 35.9933C292.805 36.5057 292.462 36.9733 292.053 37.379C291.644 37.7927 291.172 38.138 290.653 38.4015C290.128 38.6675 289.566 38.8528 288.985 38.9513C288.367 39.0522 287.742 39.1067 287.116 39.1144C286.823 39.1212 286.517 39.1251 286.219 39.1251L285.135 39.1271L183.445 39.1251Z" fill="black"/>
<path d="M199.769 20.3007C199.78 19.466 200.001 18.6476 200.413 17.9217C200.825 17.1957 201.414 16.5858 202.125 16.1486C201.674 15.5034 201.078 14.9725 200.385 14.5979C199.692 14.2234 198.921 14.0155 198.134 13.9909C196.455 13.8146 194.827 14.9957 193.971 14.9957C193.099 14.9957 191.782 14.0084 190.363 14.0376C189.445 14.0672 188.551 14.3341 187.767 14.8121C186.983 15.2902 186.336 15.9632 185.89 16.7655C183.956 20.1139 185.399 25.035 187.251 27.7416C188.178 29.067 189.261 30.5474 190.679 30.4949C192.066 30.4374 192.584 29.6104 194.258 29.6104C195.917 29.6104 196.403 30.4949 197.849 30.4615C199.338 30.4374 200.275 29.1303 201.17 27.7924C201.836 26.848 202.348 25.8043 202.688 24.6999C201.823 24.3341 201.085 23.7219 200.566 22.9396C200.047 22.1573 199.77 21.2395 199.769 20.3007V20.3007Z" fill="white"/>
<path d="M197.037 12.211C197.849 11.2368 198.249 9.98467 198.152 8.72044C196.912 8.85066 195.767 9.44322 194.944 10.38C194.542 10.8377 194.234 11.3701 194.038 11.9469C193.842 12.5237 193.761 13.1335 193.8 13.7414C194.421 13.7478 195.034 13.6134 195.595 13.3483C196.155 13.0832 196.649 12.6944 197.037 12.211Z" fill="white"/>
<path d="M217.302 27.1397H212.569L211.432 30.4962H209.427L213.911 18.0781H215.994L220.477 30.4962H218.438L217.302 27.1397ZM213.059 25.5909H216.811L214.961 20.1436H214.91L213.059 25.5909Z" fill="white"/>
<path d="M230.16 25.9698C230.16 28.7833 228.654 30.591 226.381 30.591C225.806 30.6211 225.233 30.4885 224.729 30.2083C224.226 29.9282 223.811 29.5118 223.533 29.0069H223.49V33.4913H221.631V21.4425H223.43V22.9483H223.464C223.755 22.4459 224.177 22.0317 224.685 21.7498C225.192 21.468 225.767 21.329 226.347 21.3478C228.645 21.3478 230.16 23.1642 230.16 25.9698ZM228.25 25.9698C228.25 24.1368 227.302 22.9317 225.857 22.9317C224.437 22.9317 223.482 24.1622 223.482 25.9698C223.482 27.7941 224.437 29.0158 225.857 29.0158C227.302 29.0158 228.25 27.8195 228.25 25.9698Z" fill="white"/>
<path d="M240.125 25.9698C240.125 28.7833 238.619 30.5909 236.346 30.5909C235.771 30.6211 235.198 30.4885 234.694 30.2083C234.19 29.9282 233.776 29.5118 233.498 29.0069H233.455V33.4913H231.596V21.4425H233.395V22.9483H233.429C233.72 22.4459 234.142 22.0317 234.649 21.7498C235.157 21.468 235.732 21.329 236.312 21.3478C238.61 21.3478 240.125 23.1642 240.125 25.9698ZM238.214 25.9698C238.214 24.1368 237.267 22.9317 235.822 22.9317C234.402 22.9317 233.447 24.1622 233.447 25.9698C233.447 27.7941 234.402 29.0158 235.822 29.0158C237.267 29.0158 238.214 27.8195 238.214 25.9698H238.214Z" fill="white"/>
<path d="M246.71 27.0362C246.848 28.2676 248.044 29.0762 249.679 29.0762C251.246 29.0762 252.373 28.2676 252.373 27.1572C252.373 26.1934 251.693 25.6162 250.083 25.2207L248.474 24.833C246.194 24.2822 245.135 23.2158 245.135 21.4854C245.135 19.3428 247.002 17.8711 249.654 17.8711C252.278 17.8711 254.077 19.3428 254.137 21.4854H252.261C252.149 20.2461 251.124 19.4981 249.627 19.4981C248.13 19.4981 247.106 20.2549 247.106 21.3565C247.106 22.2344 247.76 22.751 249.361 23.1465L250.729 23.4824C253.277 24.0849 254.335 25.1084 254.335 26.9248C254.335 29.248 252.485 30.7031 249.541 30.7031C246.788 30.7031 244.928 29.2822 244.808 27.0361L246.71 27.0362Z" fill="white"/>
<path d="M258.346 19.3V21.4426H260.068V22.9143H258.346V27.9055C258.346 28.6808 258.691 29.0422 259.448 29.0422C259.652 29.0386 259.856 29.0243 260.059 28.9992V30.4621C259.719 30.5256 259.373 30.5544 259.027 30.548C257.194 30.548 256.479 29.8595 256.479 28.1037V22.9143H255.163V21.4426H256.479V19.3H258.346Z" fill="white"/>
<path d="M261.065 25.9699C261.065 23.1213 262.743 21.3312 265.359 21.3312C267.984 21.3312 269.654 23.1212 269.654 25.9699C269.654 28.8264 267.993 30.6086 265.359 30.6086C262.726 30.6086 261.065 28.8263 261.065 25.9699ZM267.76 25.9699C267.76 24.0158 266.865 22.8625 265.359 22.8625C263.853 22.8625 262.959 24.0246 262.959 25.9699C262.959 27.9318 263.853 29.0764 265.359 29.0764C266.865 29.0764 267.76 27.9318 267.76 25.9699H267.76Z" fill="white"/>
<path d="M271.186 21.4425H272.959V22.9835H273.002C273.121 22.5022 273.403 22.0769 273.8 21.779C274.197 21.4811 274.684 21.3288 275.179 21.3478C275.393 21.347 275.607 21.3703 275.816 21.4171V23.1554C275.546 23.0728 275.264 23.0348 274.981 23.0431C274.711 23.0321 274.442 23.0797 274.192 23.1826C273.942 23.2855 273.718 23.4413 273.534 23.6391C273.35 23.837 273.211 24.0724 273.126 24.3291C273.042 24.5857 273.014 24.8576 273.044 25.1261V30.4963H271.186L271.186 21.4425Z" fill="white"/>
<path d="M284.384 27.837C284.134 29.4806 282.534 30.6085 280.486 30.6085C277.852 30.6085 276.217 28.8438 276.217 26.0128C276.217 23.173 277.861 21.3312 280.408 21.3312C282.913 21.3312 284.488 23.0519 284.488 25.797V26.4337H278.093V26.546C278.064 26.8792 278.105 27.2149 278.216 27.5307C278.326 27.8465 278.502 28.1353 278.732 28.3779C278.963 28.6204 279.242 28.8112 279.552 28.9375C279.861 29.0638 280.195 29.1227 280.529 29.1104C280.968 29.1516 281.409 29.0499 281.785 28.8204C282.162 28.591 282.455 28.2461 282.62 27.837L284.384 27.837ZM278.102 25.1349H282.628C282.645 24.8353 282.6 24.5355 282.495 24.2543C282.39 23.9731 282.229 23.7166 282.02 23.5008C281.812 23.285 281.561 23.1147 281.283 23.0005C281.006 22.8863 280.708 22.8306 280.408 22.8371C280.105 22.8353 279.805 22.8934 279.525 23.0082C279.245 23.1229 278.99 23.292 278.776 23.5056C278.562 23.7192 278.392 23.9732 278.276 24.2528C278.16 24.5325 278.101 24.8323 278.102 25.1349V25.1349Z" fill="white"/>
<path d="M212.826 8.73116C213.216 8.7032 213.607 8.76206 213.971 8.90349C214.335 9.04492 214.663 9.2654 214.932 9.54902C215.2 9.83264 215.403 10.1723 215.524 10.5436C215.645 10.9149 215.683 11.3085 215.634 11.696C215.634 13.6022 214.604 14.6979 212.826 14.6979H210.671V8.73116H212.826ZM211.598 13.8541H212.723C213.001 13.8707 213.28 13.8251 213.538 13.7205C213.797 13.6159 214.029 13.4549 214.217 13.2494C214.406 13.0438 214.546 12.7988 214.628 12.5322C214.71 12.2656 214.731 11.984 214.69 11.7081C214.728 11.4333 214.705 11.1535 214.621 10.8889C214.538 10.6242 214.398 10.3812 214.21 10.1773C214.022 9.97335 213.791 9.81354 213.534 9.70931C213.277 9.60507 213 9.55899 212.723 9.57436H211.598V13.8541Z" fill="white"/>
<path d="M216.681 12.4444C216.652 12.1485 216.686 11.8499 216.78 11.5678C216.874 11.2858 217.026 11.0264 217.226 10.8065C217.426 10.5865 217.669 10.4107 217.941 10.2904C218.213 10.1702 218.507 10.108 218.804 10.108C219.101 10.108 219.395 10.1702 219.667 10.2904C219.939 10.4107 220.183 10.5865 220.383 10.8065C220.583 11.0264 220.735 11.2858 220.828 11.5678C220.922 11.8499 220.956 12.1485 220.928 12.4444C220.957 12.7406 220.923 13.0396 220.83 13.3221C220.736 13.6046 220.584 13.8644 220.384 14.0848C220.184 14.3053 219.94 14.4814 219.668 14.6019C219.396 14.7225 219.102 14.7847 218.804 14.7847C218.507 14.7847 218.212 14.7225 217.94 14.6019C217.668 14.4814 217.424 14.3053 217.224 14.0848C217.024 13.8644 216.872 13.6046 216.779 13.3221C216.685 13.0396 216.652 12.7406 216.681 12.4444V12.4444ZM220.014 12.4444C220.014 11.4683 219.575 10.8975 218.806 10.8975C218.033 10.8975 217.599 11.4683 217.599 12.4444C217.599 13.4283 218.033 13.9947 218.806 13.9947C219.575 13.9947 220.014 13.4243 220.014 12.4444H220.014Z" fill="white"/>
<path d="M226.573 14.6978H225.651L224.721 11.3814H224.65L223.724 14.6978H222.811L221.569 10.1949H222.471L223.277 13.6309H223.344L224.27 10.1949H225.122L226.048 13.6309H226.118L226.921 10.1949H227.81L226.573 14.6978Z" fill="white"/>
<path d="M228.854 10.1949H229.709V10.9102H229.775C229.888 10.6533 230.078 10.4379 230.319 10.2941C230.56 10.1503 230.84 10.0852 231.119 10.108C231.338 10.0915 231.558 10.1245 231.763 10.2046C231.967 10.2847 232.151 10.4098 232.301 10.5707C232.451 10.7315 232.562 10.924 232.628 11.1338C232.693 11.3436 232.71 11.5655 232.678 11.7828V14.6979H231.789V12.006C231.789 11.2823 231.475 10.9225 230.817 10.9225C230.669 10.9155 230.52 10.9408 230.382 10.9967C230.244 11.0525 230.12 11.1375 230.018 11.2459C229.915 11.3543 229.838 11.4835 229.79 11.6246C229.743 11.7658 229.726 11.9155 229.742 12.0636V14.6979H228.854L228.854 10.1949Z" fill="white"/>
<path d="M234.094 8.4371H234.982V14.6979H234.094V8.4371Z" fill="white"/>
<path d="M236.218 12.4443C236.189 12.1484 236.223 11.8498 236.317 11.5677C236.411 11.2856 236.563 11.0263 236.763 10.8063C236.963 10.5863 237.207 10.4105 237.478 10.2902C237.75 10.17 238.044 10.1078 238.342 10.1078C238.639 10.1078 238.933 10.17 239.205 10.2902C239.477 10.4105 239.72 10.5863 239.92 10.8063C240.12 11.0263 240.272 11.2856 240.366 11.5677C240.46 11.8498 240.494 12.1484 240.465 12.4443C240.494 12.7406 240.461 13.0396 240.367 13.3221C240.273 13.6046 240.122 13.8644 239.922 14.0849C239.722 14.3053 239.478 14.4814 239.206 14.6019C238.934 14.7225 238.639 14.7847 238.342 14.7847C238.044 14.7847 237.75 14.7225 237.477 14.6019C237.205 14.4814 236.961 14.3053 236.761 14.0849C236.561 13.8644 236.41 13.6046 236.316 13.3221C236.222 13.0396 236.189 12.7406 236.218 12.4443V12.4443ZM239.551 12.4443C239.551 11.4682 239.112 10.8974 238.343 10.8974C237.57 10.8974 237.136 11.4683 237.136 12.4443C237.136 13.4283 237.57 13.9947 238.343 13.9947C239.112 13.9947 239.551 13.4243 239.551 12.4443H239.551Z" fill="white"/>
<path d="M241.401 13.4243C241.401 12.6137 242.004 12.1465 243.076 12.08L244.295 12.0097V11.6211C244.295 11.1455 243.981 10.8769 243.374 10.8769C242.877 10.8769 242.534 11.059 242.435 11.3774H241.575C241.666 10.6039 242.393 10.1078 243.415 10.1078C244.543 10.1078 245.18 10.6698 245.18 11.6211V14.6978H244.325V14.065H244.254C244.112 14.292 243.911 14.477 243.674 14.6012C243.436 14.7254 243.17 14.7844 242.902 14.772C242.713 14.7916 242.522 14.7715 242.341 14.7128C242.16 14.6541 241.994 14.5581 241.852 14.4312C241.711 14.3042 241.598 14.149 241.52 13.9756C241.442 13.8022 241.402 13.6144 241.401 13.4243V13.4243ZM244.295 13.0395V12.6631L243.196 12.7334C242.576 12.7749 242.294 12.9858 242.294 13.3828C242.294 13.7881 242.646 14.0239 243.129 14.0239C243.271 14.0383 243.414 14.024 243.55 13.9819C243.686 13.9398 243.812 13.8708 243.921 13.7789C244.03 13.6871 244.119 13.5743 244.183 13.4473C244.248 13.3202 244.286 13.1816 244.295 13.0395V13.0395Z" fill="white"/>
<path d="M246.348 12.4445C246.348 11.0216 247.08 10.1202 248.217 10.1202C248.499 10.1073 248.778 10.1747 249.023 10.3146C249.267 10.4545 249.467 10.6611 249.598 10.9102H249.665V8.4371H250.553V14.6979H249.702V13.9864H249.631C249.49 14.2339 249.283 14.438 249.034 14.5764C248.785 14.7149 248.502 14.7826 248.217 14.7721C247.072 14.7721 246.348 13.8707 246.348 12.4445ZM247.266 12.4445C247.266 13.3995 247.716 13.9743 248.469 13.9743C249.218 13.9743 249.681 13.3913 249.681 12.4484C249.681 11.5099 249.213 10.9186 248.469 10.9186C247.721 10.9186 247.266 11.4972 247.266 12.4445H247.266Z" fill="white"/>
<path d="M254.23 12.4444C254.202 12.1485 254.236 11.8499 254.329 11.5678C254.423 11.2858 254.575 11.0264 254.775 10.8065C254.975 10.5865 255.219 10.4107 255.49 10.2904C255.762 10.1702 256.056 10.108 256.354 10.108C256.651 10.108 256.945 10.1702 257.217 10.2904C257.489 10.4107 257.732 10.5865 257.932 10.8065C258.132 11.0264 258.284 11.2858 258.378 11.5678C258.472 11.8499 258.505 12.1485 258.477 12.4444C258.506 12.7406 258.472 13.0396 258.379 13.3221C258.285 13.6046 258.134 13.8644 257.934 14.0848C257.734 14.3053 257.49 14.4814 257.218 14.6019C256.945 14.7225 256.651 14.7847 256.354 14.7847C256.056 14.7847 255.762 14.7225 255.489 14.6019C255.217 14.4814 254.973 14.3053 254.773 14.0848C254.573 13.8644 254.422 13.6046 254.328 13.3221C254.235 13.0396 254.201 12.7406 254.23 12.4444V12.4444ZM257.563 12.4444C257.563 11.4683 257.125 10.8975 256.355 10.8975C255.583 10.8975 255.148 11.4683 255.148 12.4444C255.148 13.4283 255.583 13.9947 256.355 13.9947C257.125 13.9947 257.563 13.4243 257.563 12.4444Z" fill="white"/>
<path d="M259.669 10.1949H260.525V10.9102H260.591C260.704 10.6533 260.894 10.4379 261.135 10.2941C261.376 10.1503 261.655 10.0852 261.935 10.108C262.154 10.0915 262.374 10.1245 262.579 10.2046C262.783 10.2847 262.967 10.4098 263.117 10.5707C263.267 10.7315 263.378 10.924 263.443 11.1338C263.509 11.3436 263.526 11.5655 263.494 11.7828V14.6979H262.605V12.006C262.605 11.2823 262.291 10.9225 261.633 10.9225C261.485 10.9155 261.336 10.9408 261.198 10.9967C261.06 11.0525 260.936 11.1375 260.833 11.2459C260.731 11.3543 260.654 11.4835 260.606 11.6246C260.559 11.7658 260.542 11.9155 260.558 12.0636V14.6979H259.669V10.1949Z" fill="white"/>
<path d="M268.515 9.07386V10.2155H269.491V10.964H268.515V13.2794C268.515 13.7511 268.709 13.9577 269.152 13.9577C269.265 13.9573 269.378 13.9504 269.491 13.9371V14.6774C269.331 14.7059 269.169 14.7211 269.007 14.7228C268.019 14.7228 267.625 14.3751 267.625 13.507V10.964H266.911V10.2154H267.625V9.07386H268.515Z" fill="white"/>
<path d="M270.705 8.4371H271.585V10.9186H271.656C271.774 10.6592 271.969 10.4426 272.215 10.2983C272.461 10.1539 272.745 10.0889 273.029 10.1119C273.247 10.1001 273.465 10.1364 273.667 10.2185C273.869 10.3005 274.051 10.4262 274.199 10.5865C274.347 10.7469 274.458 10.9379 274.524 11.1461C274.59 11.3542 274.609 11.5743 274.58 11.7906V14.6979H273.69V12.0099C273.69 11.2906 273.355 10.9264 272.727 10.9264C272.574 10.9138 272.421 10.9348 272.277 10.9879C272.133 11.0409 272.003 11.1248 271.895 11.2335C271.787 11.3422 271.704 11.4733 271.652 11.6174C271.6 11.7615 271.58 11.9153 271.593 12.068V14.6978H270.705L270.705 8.4371Z" fill="white"/>
<path d="M279.761 13.482C279.641 13.8935 279.379 14.2495 279.022 14.4877C278.666 14.7258 278.236 14.831 277.81 14.7847C277.513 14.7926 277.219 14.7357 276.946 14.6182C276.674 14.5007 276.43 14.3253 276.232 14.1041C276.034 13.883 275.887 13.6214 275.8 13.3376C275.713 13.0538 275.689 12.7545 275.73 12.4605C275.691 12.1656 275.715 11.8657 275.801 11.581C275.888 11.2963 276.034 11.0335 276.231 10.8105C276.428 10.5874 276.671 10.4092 276.942 10.288C277.214 10.1668 277.509 10.1054 277.806 10.1079C279.059 10.1079 279.815 10.9639 279.815 12.3779V12.688H276.635V12.7378C276.621 12.9031 276.642 13.0694 276.696 13.2262C276.75 13.3829 276.837 13.5266 276.95 13.6481C277.062 13.7696 277.2 13.8661 277.352 13.9315C277.504 13.9969 277.669 14.0297 277.834 14.0279C278.047 14.0534 278.262 14.0151 278.453 13.9179C278.644 13.8207 278.801 13.6689 278.906 13.482L279.761 13.482ZM276.635 12.0308H278.91C278.921 11.8797 278.9 11.7279 278.849 11.5851C278.798 11.4424 278.718 11.3119 278.614 11.2021C278.509 11.0922 278.383 11.0054 278.243 10.9472C278.103 10.8891 277.953 10.8608 277.801 10.8643C277.648 10.8623 277.495 10.8912 277.353 10.9491C277.21 11.0071 277.081 11.093 276.972 11.2017C276.864 11.3104 276.778 11.4398 276.72 11.5821C276.662 11.7245 276.633 11.8771 276.635 12.0308H276.635Z" fill="white"/>
<defs>
<linearGradient id="paint0_linear_31_62" x1="21.7997" y1="8.7097" x2="5.01737" y2="25.4922" gradientUnits="userSpaceOnUse">
<stop stop-color="#00A0FF"/>
<stop offset="0.00657445" stop-color="#00A1FF"/>
<stop offset="0.2601" stop-color="#00BEFF"/>
<stop offset="0.5122" stop-color="#00D2FF"/>
<stop offset="0.7604" stop-color="#00DFFF"/>
<stop offset="1" stop-color="#00E3FF"/>
</linearGradient>
<linearGradient id="paint1_linear_31_62" x1="33.8344" y1="20.0014" x2="9.63756" y2="20.0014" gradientUnits="userSpaceOnUse">
<stop stop-color="#FFE000"/>
<stop offset="0.4087" stop-color="#FFBD00"/>
<stop offset="0.7754" stop-color="#FFA500"/>
<stop offset="1" stop-color="#FF9C00"/>
</linearGradient>
<linearGradient id="paint2_linear_31_62" x1="24.827" y1="22.2961" x2="2.06875" y2="45.0544" gradientUnits="userSpaceOnUse">
<stop stop-color="#FF3A44"/>
<stop offset="1" stop-color="#C31162"/>
</linearGradient>
<linearGradient id="paint3_linear_31_62" x1="7.29726" y1="0.176218" x2="17.4598" y2="10.3387" gradientUnits="userSpaceOnUse">
<stop stop-color="#32A071"/>
<stop offset="0.0685" stop-color="#2DA771"/>
<stop offset="0.4762" stop-color="#15CF74"/>
<stop offset="0.8009" stop-color="#06E775"/>
<stop offset="1" stop-color="#00F076"/>
</linearGradient>
</defs>
</svg>
